/* XPM */ 
static const unsigned char * bitcoin64_xpm[] = {
"64 64 207 2",
"  	c None",
"! 	c black",
"# 	c #F9A239",
"$ 	c #F9A036",
"% 	c #F99D2E",
"& 	c #F99C2B",
"' 	c #F99F34",
"( 	c #F9A23A",
") 	c #F9A035",
"* 	c #F99C2C",
"+ 	c #F99C2D",
", 	c #F9A137",
"- 	c #FAA43E",
". 	c #FBBE75",
"0 	c #FCCF98",
"1 	c #FAAF55",
"2 	c #F99F32",
"3 	c #FAAA49",
"4 	c #FCCE96",
"5 	c #FBC27D",
"6 	c #F9A743",
"7 	c #F99E31",
"8 	c #FBC685",
"9 	c #FEEFDD",
": 	c white",
"; 	c #FDE5C8",
"< 	c #FDDAB0",
"= 	c #FEF3E6",
"> 	c #FCCC93",
"? 	c #FAA33B",
"@ 	c #F99D2F",
"A 	c #FAAB4D",
"B 	c #FDE5C9",
"C 	c #FBC17A",
"D 	c #FAB664",
"E 	c #FFFDFB",
"F 	c #FEEBD5",
"G 	c #FAB159",
"H 	c #FAB057",
"I 	c #FEF2E4",
"J 	c #FFF1E1",
"K 	c #F9A53E",
"L 	c #F9A034",
"M 	c #FEE8CF",
"N 	c #FEF7EE",
"O 	c #FBB867",
"P 	c #F9A949",
"Q 	c #FEF2E3",
"R 	c #FCD19D",
"S 	c #F99D2D",
"T 	c #FCC685",
"U 	c #FFF8EF",
"V 	c #FAB058",
"W 	c #F99E32",
"X 	c #FDE2C1",
"Y 	c #FEF7EF",
"Z 	c #F9A540",
"[ 	c #FEF0DE",
"] 	c #FEECD6",
"^ 	c #F9A33A",
"_ 	c #F9A135",
"` 	c #FBC079",
"a 	c #FEECD8",
"b 	c #FCC98C",
"c 	c #F9A43C",
"d 	c #F9A238",
"e 	c #FAAF54",
"f 	c #FDE8CE",
"g 	c #FCCB91",
"h 	c #FCD6A8",
"i 	c #FAA138",
"j 	c #F99B2A",
"k 	c #F99B2B",
"l 	c #FCCD95",
"m 	c #FFF5E9",
"n 	c #F9A643",
"o 	c #FAB96A",
"p 	c #FDE1C0",
"q 	c #F99F33",
"r 	c #F99A28",
"s 	c #FDD7AA",
"t 	c #FCC482",
"u 	c #FCD7A8",
"v 	c #FAB35D",
"w 	c #FAAA4A",
"x 	c #FEF8F0",
"y 	c #FEEBD3",
"z 	c #F9A237",
"{ 	c #FCC17C",
"| 	c #FCD5A5",
"} 	c #FCCB90",
"~ 	c #F9A33B",
" !	c #FDE0BD",
"!!	c #F9A744",
"#!	c #F9AA4B",
"$!	c #FFF8F1",
"%!	c #FCD9AE",
"&!	c #FEF1E2",
"'!	c #FEF4E7",
"(!	c #F9A33C",
")!	c #F9A136",
"*!	c #FFFEFD",
"+!	c #FBB25C",
",!	c #FAB25B",
"-!	c #FFFEFC",
".!	c #FCCE95",
"0!	c #FBB96A",
"1!	c #FDE0BF",
"2!	c #FFFCF8",
"3!	c #FBC07A",
"4!	c #FBBC6F",
"5!	c #F99E30",
"6!	c #FBB765",
"7!	c #FBC687",
"8!	c #F9A138",
"9!	c #F9A033",
":!	c #FBBB6F",
";!	c #FBC17B",
"<!	c #F99E2F",
"=!	c #FBB767",
">!	c #FBC584",
"?!	c #FEEFDC",
"@!	c #FBBA6C",
"A!	c #FBC27E",
"B!	c #FBB561",
"C!	c #FFFFFD",
"D!	c #FBC98C",
"E!	c #FEE6CB",
"F!	c #F9A43D",
"G!	c #FBBD72",
"H!	c #FBBF76",
"I!	c #FAAF53",
"J!	c #FFFCF9",
"K!	c #FCD29F",
"L!	c #FEEDD8",
"M!	c #FFF6ED",
"N!	c #FAA846",
"O!	c #FBC585",
"P!	c #F9A642",
"Q!	c #FFF4E7",
"R!	c #FDDFBB",
"S!	c #FAB25A",
"T!	c #FFFCF7",
"U!	c #FAAD51",
"V!	c #FDE4C5",
"W!	c #FEF5E9",
"X!	c #FBCA8E",
"Y!	c #FEEEDA",
"Z!	c #FCCA8F",
"[!	c #FCD3A2",
"]!	c #F99D2C",
"^!	c #FEECD7",
"_!	c #FAA847",
"`!	c #F99826",
"a!	c #FCC88B",
"b!	c #FDD6A7",
"c!	c #F9AC4E",
"d!	c #FFFAF3",
"e!	c #FCD19C",
"f!	c #FAA947",
"g!	c #FDE4C7",
"h!	c #FBB45E",
"i!	c #F9A43E",
"j!	c #FAB461",
"k!	c #FCD4A3",
"l!	c #FEF9F1",
"m!	c #FFFDFA",
"n!	c #FEF7ED",
"o!	c #FDDFBC",
"p!	c #FAA641",
"q!	c #FEF1E0",
"r!	c #FFF7EF",
"s!	c #FAAD50",
"t!	c #FAB561",
"u!	c #FFFAF4",
"v!	c #FBBE76",
"w!	c #FDE6CA",
"x!	c #FCC480",
"y!	c #FBB25B",
"z!	c #FEE9D0",
"{!	c #FFFEFE",
"|!	c #FCD6A9",
"}!	c #FCCF99",
"~!	c #FFFBF6",
" #	c #FBB868",
"!#	c #FCC380",
"##	c #FEE7CB",
"$#	c #FFFBF7",
"%#	c #FFF6EC",
"&#	c #FDDCB5",
"'#	c #FBB663",
"(#	c #F99C2E",
")#	c #FDD8AD",
"*#	c #FFFFFE",
"+#	c #FEEAD2",
",#	c #FAAE52",
"-#	c #FBBC70",
".#	c #FCC585",
"0#	c #FBC37E",
"1#	c #FBB766",
"2#	c #F9A947",
"3#	c #FBB662",
"4#	c #FBC27C",
"5#	c #FCC88A",
"6#	c #FCC687",
"7#	c #FBBD73",
"8#	c #FAB056",
"                                                  # # # # # # # # # # # # # #                                                   ",
"                                            # # # # # # # # # # # # # # # # # # # #                                             ",
"                                      # # # # # # # # # # # # # # # # # # # # # # # # # #                                       ",
"                                  # # # # # # # # # # # # # # # # # # # # # # # # # # # # # #                                   ",
"                              # # # # # # # # # # # # # # # # # # # # # # # # # # # # # # # # # #                               ",
"                            # # # # # # # # # # # # # # # # # # # # # # # # # # # # # # # # # # # #                             ",
"                        # # # # # # # # # # # # # # # # # # # # # # # # # # # # # # # # # # # # # # # #                         ",
"                      # # # # # # # # # # # # # # # # # # # # # # # # # # # # # # # # # # # # # # # # # #                       ",
"                    # # # # # # # # # # # # # # # # # # # # # # # # # # # # # # # # # # # # # # # # # # # #                     ",
"                  # # # # # # # # # # # # # # # # # # # # # # # # # # # # # # # # # # # # # # # # # # # # # #                   ",
"                # # # # # # # # # # # # # # # # # # # # # # # # # # # # # # # # # # # # # # # # # # # # # # # #                 ",
"              # # # # # # # # # # # # # # # # # # # # # # # # # # # # # # # # # # # # # # # # # # # # # # # # # #               ",
"              # # # # # # # # # # # # # # # # # # # # # # # # # # # # # # # # # # # # # # # # # # # # # # # # # # #             ",
"            # # # # # # # # # # # # # # # # # # # # # # # # # # # # # # # # # # # # # # # # # # # # # # # # # # # #             ",
"          # # # # # # # # # # # # # # # # # # # # # # # # # # # # # # # # # # # # # # # # # # # # # # # # # # # # # #           ",
"        # # # # # # # # # # # # # # # # # # # # # # # # # # # # # # # # # # # # # # # # # # # # # # # # # # # # # # # #         ",
"        # # # # # # # # # # # # # # # # # # # # # # # # # # # # # # # # # # # # # # # # # # # # # # # # # # # # # # # #         ",
"      # # # # # # # # # # # # # # # # # $ % & ' ( # # # # # # # # # # # # # # ( ) * + ) # # # # # # # # # # # # # # # # #       ",
"      # # # # # # # # # # # # # # # , + - . 0 1 2 # # # # # # # # # # # # # # ' 3 4 5 6 * ) ( # # # # # # # # # # # # # #       ",
"    # # # # # # # # # # # # # # ( 7 ) 8 9 : : ; 7 , # # # # # # # # # # # # # * < : : = > ? @ # # # # # # # # # # # # # # #     ",
"    # # # # # # # # # # # # # # % A B : : : : : C & # # # # # # # # # # # # % D E : : : : F G * # # # # # # # # # # # # # #     ",
"    # # # # # # # # # # # # # % H I : : : : : : J K ) # # # # # # # # # # , L M : : : : : : N O + # # # # # # # # # # # # #     ",
"  # # # # # # # # # # # # # 2 P Q : : : : : : : : R S # # # # # # # # # # + T : : : : : : : : U V @ # # # # # # # # # # # # #   ",
"  # # # # # # # # # # # # , W X : : : : : : : : : Y A ' # # # # # # # # ) Z [ : : : : : : : : : ] ^ _ # # # # # # # # # # # #   ",
"  # # # # # # # # # # # # + ` : : : : : : : : a b G c d # # # # # # # # d ^ e T f : : : : : : : : g & # # # # # # # # # # # #   ",
"  # # # # # # # # # # # , , ] : : : : : : : h i j 7 d # # # # # # # # # # # 2 k 2 l : : : : : : : m n ) # # # # # # # # # # # # ",
"# # # # # # # # # # # # @ o : : : : : : : p % q # # # # # # # # # # # # # # # # ) r s : : : : : : : t * # # # # # # # # # # # # ",
"# # # # # # # # # # # # * u : : : : : : E v % # # # # # # # # # ) % k % # # # # # W w x : : : : : : p 7 # # # # # # # # # # # # ",
"# # # # # # # # # # # , d F : : : : : : y $ z # # # # # # d 7 k Z { | } ~ d # # # # %  !: : : : : : m !!) # # # # # # # # # # # ",
"# # # # # # # # # # # ' #!$!: : : : : : %!* # # # # # # @ @ 1 R &!: : '!(!)!# # # # & 4 : : : : : : *!+!7 # # # # # # # # # # # ",
"# # # # # # # # # # # 7 ,!-!: : : : : : .!* # # # # # ) 0!1!2!: : : : 9 (!, # # # # + 3!: : : : : : : 4!% # # # # # # # # # # # ",
"# # # # # # # # # # # 5!6!: : : : : : : 7!+ # # # # 8!9!f : : : : : : 9 (!, # # # # % :!: : : : : : : ;!S # # # # # # # # # # # ",
"# # # # # # # # # # # <!=!: : : : : : : >!+ # # # # 8!L ; : : : : : : ?!(!, # # # # % @!: : : : : : : A!S # # # # # # # # # # # ",
"# # # # # # # # # # # 5!B!C!: : : : : : D!* # # # # 8!) E!: : : : : : [ F!, # # # # % G!: : : : : : : H!% # # # # # # # # # # # ",
"# # # # # # # # # # # W I!J!: : : : : : K!* # # # # , # L!: : : : : : M!N!) # # # # * O!: : : : : : : O @ # # # # # # # # # # # ",
"# # # # # # # # # # # $ P!Q!: : : : : : R!% # # # # ' P $!: : : : : : -!S!5!# # # # k | : : : : : : T!U!2 # # # # # # # # # # # ",
"# # # # # # # # # # # d 7 V!: : : : : : W!P!q # # ( j . : : : : : : : : X!r ( # # )!)!a : : : : : : Y!( , # # # # # # # # # # # ",
"# # # # # # # # # # # # * Z!: : : : : : : [!r 2 )!]!~ ^!: : : : : : : : '!_!j $ q `!a!: : : : : : : b!* # # # # # # # # # # # # ",
"  # # # # # # # # # # # q c!d!: : : : : : : e!f!F!H g!: : : : : : : : : : y h!i!!!a!J!: : : : : : *!j!5!# # # # # # # # # # # # ",
"  # # # # # # # # # # # # + k!: : : : : : : : l!Q m!: : : : : : : : : : : : *!I n!: : : : : : : : o!5!d # # # # # # # # # # #   ",
"  # # # # # # # # # # # # L p!q!: : : : : : : : : : : : : : : : : : : : : : : : : : : : : : : : r!s!7 # # # # # # # # # # # #   ",
"  # # # # # # # # # # # # # % t!u!: : : : : : : : : : : : : : : : : : : : : : : : : : : : : : -!v!* # # # # # # # # # # # # #   ",
"    # # # # # # # # # # # # # * :!$!: : : : : : : : : : : : : w! !: : : : : : : : : : : : : J!x!* # # # # # # # # # # # # #     ",
"    # # # # # # # # # # # # # # * y!z!: : : : : : : : : : {!|!# 7 }!~!: : : : : : : : : : Y! #* d # # # # # # # # # # # # #     ",
"    # # # # # # # # # # # # # # # @ 8!!###$#: : : : : %#&#'#(#) )!* G )#'!*#: : : : m!+#a!- % # # # # # # # # # # # # # # #     ",
"      # # # # # # # # # # # # # # ( )!+ ) ,#-#.#a!0#1#2#% <!# # # # 7 + n 3#4#5#6#7#8#8!* ) ( # # # # # # # # # # # # # #       ",
"      # # # # # # # # # # # # # # # # # 8!2 % + + S @ L # # # # # # # # ) 5!S + + S W , # # # # # # # # # # # # # # # # #       ",
"        # # # # # # # # # # # # # # # # # # # # # # # # # # # # # # # # # # # # # # # # # # # # # # # # # # # # # # # #         ",
"        # # # # # # # # # # # # # # # # # # # # # # # # # # # # # # # # # # # # # # # # # # # # # # # # # # # # # # # #         ",
"          # # # # # # # # # # # # # # # # # # # # # # # # # # # # # # # # # # # # # # # # # # # # # # # # # # # # # #           ",
"            # # # # # # # # # # # # # # # # # # # # # # # # # # # # # # # # # # # # # # # # # # # # # # # # # # # #             ",
"              # # # # # # # # # # # # # # # # # # # # # # # # # # # # # # # # # # # # # # # # # # # # # # # # # # #             ",
"              # # # # # # # # # # # # # # # # # # # # # # # # # # # # # # # # # # # # # # # # # # # # # # # # # #               ",
"                # # # # # # # # # # # # # # # # # # # # # # # # # # # # # # # # # # # # # # # # # # # # # # # #                 ",
"                  # # # # # # # # # # # # # # # # # # # # # # # # # # # # # # # # # # # # # # # # # # # # # #                   ",
"                    # # # # # # # # # # # # # # # # # # # # # # # # # # # # # # # # # # # # # # # # # # # #                     ",
"                      # # # # # # # # # # # # # # # # # # # # # # # # # # # # # # # # # # # # # # # # # #                       ",
"                          # # # # # # # # # # # # # # # # # # # # # # # # # # # # # # # # # # # # # # #                         ",
"                            # # # # # # # # # # # # # # # # # # # # # # # # # # # # # # # # # # # #                             ",
"                              # # # # # # # # # # # # # # # # # # # # # # # # # # # # # # # # # #                               ",
"                                  # # # # # # # # # # # # # # # # # # # # # # # # # # # # # #                                   ",
"                                      # # # # # # # # # # # # # # # # # # # # # # # # # #                                       ",
"                                            # # # # # # # # # # # # # # # # # # # #                                             ",
"                                                    # # # # # # # # # # # # #                                                   "};