/* XPM */ 
static const unsigned char * bitcoin32_xpm[] = {
"32 32 122 2",
"  	c None",
"! 	c black",
"# 	c #F9A239",
"$ 	c #F9A238",
"% 	c #F99F33",
"& 	c #F99C2D",
"' 	c #F99E31",
"( 	c #F9A138",
") 	c #F99D2D",
"* 	c #F99F32",
"+ 	c #FAAB4D",
", 	c #FDD6A7",
"- 	c #FCD5A7",
". 	c #F9A034",
"0 	c #F99E32",
"1 	c #FCD29F",
"2 	c #FCD8AD",
"3 	c #FAAE52",
"4 	c #FBBC70",
"5 	c #FEF5EA",
"6 	c white",
"7 	c #FBBF76",
"8 	c #F99D2E",
"9 	c #FBBA6C",
": 	c #FEF7EE",
"; 	c #FBC079",
"< 	c #F99D2F",
"= 	c #FAB45F",
"> 	c #FFFBF6",
"? 	c #FEEDD9",
"@ 	c #F9A33C",
"A 	c #F9A136",
"B 	c #F9A137",
"C 	c #FEE8CF",
"D 	c #FFFDFB",
"E 	c #FBB869",
"F 	c #F9A035",
"G 	c #FEE8CE",
"H 	c #FDD8AE",
"I 	c #FAB158",
"J 	c #F9A33A",
"K 	c #F9A23A",
"L 	c #FAAF56",
"M 	c #FCD5A6",
"N 	c #F99E30",
"O 	c #FBB663",
"P 	c #FDE2C2",
"Q 	c #F99C2B",
"R 	c #F99F34",
"S 	c #F99A28",
"T 	c #FDDDB7",
"U 	c #FBBB6E",
"V 	c #F99C2C",
"W 	c #FCCD94",
"X 	c #FBC17B",
"Y 	c #FAB25B",
"Z 	c #FDD7A9",
"[ 	c #FDDFBA",
"] 	c #F9A540",
"^ 	c #FCD3A1",
"_ 	c #FDD9AD",
"` 	c #FFFEFE",
"a 	c #FAB663",
"b 	c #FDDAB1",
"c 	c #FFFEFC",
"d 	c #FEF7ED",
"e 	c #F9A641",
"f 	c #FAB059",
"g 	c #FFFEFB",
"h 	c #FDDDB6",
"i 	c #FDD9AF",
"j 	c #FAB461",
"k 	c #F9A33B",
"l 	c #FEF1E1",
"m 	c #FEF3E4",
"n 	c #FAB057",
"o 	c #FDDEB8",
"p 	c #FCD19E",
"q 	c #FBBC6F",
"r 	c #F9A53F",
"s 	c #FFF4E9",
"t 	c #FFF9F2",
"u 	c #FAA947",
"v 	c #FAB664",
"w 	c #FDD8AA",
"x 	c #FBBD72",
"y 	c #FDDAB2",
"z 	c #F99721",
"{ 	c #FBBD74",
"| 	c #FBC37F",
"} 	c #F99621",
"~ 	c #F99925",
" !	c #FDD5A6",
"!!	c #F9A036",
"#!	c #F9A43D",
"$!	c #FEF1E0",
"%!	c #FCDBB1",
"&!	c #FCCF99",
"'!	c #FFF6ED",
"(!	c #FFF9F1",
")!	c #FCD09B",
"*!	c #FCD7AB",
"+!	c #FFFEFD",
",!	c #F9A743",
"-!	c #FBC07A",
".!	c #FCC17B",
"0!	c #FEF6EC",
"1!	c #FFFFFE",
"2!	c #FCD4A3",
"3!	c #FCD19C",
"4!	c #FEF8F0",
"5!	c #FCC584",
"6!	c #FCCD93",
"7!	c #FDDDB8",
"8!	c #FDE0BD",
"9!	c #FCD5A5",
":!	c #FBB664",
";!	c #FCD4A2",
"<!	c #FDE0BC",
"=!	c #FDDEB9",
">!	c #FCCE97",
"?!	c #FAAD51",
"                      # # # # # # # # # #                       ",
"                  # # # # # # # # # # # # # #                   ",
"              # # # # # # # # # # # # # # # # # #               ",
"            # # # # # # # # # # # # # # # # # # # #             ",
"          # # # # # # # # # # # # # # # # # # # # # #           ",
"        # # # # # # # # # # # # # # # # # # # # # # # #         ",
"      # # # # # # # # # # # # # # # # # # # # # # # # # #       ",
"    # # # # # # # # # $ # # # # # # # # $ # # # # # # # # #     ",
"    # # # # # # # % & ' ( # # # # # # $ ' ) * # # # # # # #     ",
"  # # # # # # # & + , - . ( # # # # $ 0 1 2 3 & # # # # # # #   ",
"  # # # # # # ) 4 5 6 6 7 ) # # # # 8 9 6 6 : ; & # # # # # #   ",
"# # # # # # < = > 6 6 6 ? @ A # # B B C 6 6 6 D E 8 # # # # # # ",
"# # # # # ( F G 6 6 6 H I J $ # # B K L M 6 6 6 ? # A # # # # # ",
"# # # # # N O 6 6 6 P Q < # $ N & R # N S T 6 6 6 U 8 # # # # # ",
"# # # # # V W 6 6 6 X Q K ( % Y Z [ ] B & U 6 6 6 ^ V # # # # # ",
"# # # # # & _ 6 6 ` a N $ ( b c 6 d e A ' f g 6 6 h 8 $ # # # # ",
"# # # # # & i 6 6 ` j N B k l 6 6 m e A ' n D 6 6 o < $ # # # # ",
"# # # # # V p 6 6 6 q V F r s 6 6 t u R 8 v ` 6 6 w V # # # # # ",
"# # # # # 8 x 6 6 6 y S z { ` 6 6 6 | } ~  !6 6 6 | & # # # # # ",
"# # # # # !!#!$!6 6 6 %!&!'!6 6 6 6 (!)!*!+!6 6 s ,!F # # # # # ",
"# # # # # # 8 U +!6 6 6 6 6 6 6 6 6 6 6 6 6 6 6 -!) # # # # # # ",
"  # # # # # # & .!0!6 6 6 6 1!2!3!c 6 6 6 6 4!5!8 $ # # # # #   ",
"  # # # # # # # & + 6!7!8!9!:!8 V = ;!<!=!>!?!& $ # # # # # #   ",
"    # # # # # # # % V < N V N # # N V N < V * # # # # # # #     ",
"    # # # # # # # # # $ $ # # # # # # $ $ # # # # # # # # #     ",
"      # # # # # # # # # # # # # # # # # # # # # # # # # #       ",
"        # # # # # # # # # # # # # # # # # # # # # # # #         ",
"          # # # # # # # # # # # # # # # # # # # # # #           ",
"            # # # # # # # # # # # # # # # # # # # #             ",
"              # # # # # # # # # # # # # # # # # #               ",
"                  # # # # # # # # # # # # # #                   ",
"                      # # # # # # # # # #                       "};