/* XPM */ 
static const unsigned char * bitcoin16_xpm[] = {
"16 16 62 1",
" 	c None",
"!	c black",
"#	c #F9A239",
"$	c #F9A136",
"%	c #F99E30",
"&	c #F9A238",
"'	c #F9A034",
"(	c #F9A641",
")	c #FBBC70",
"*	c #F9A33C",
"+	c #F9A33B",
",	c #F9A743",
"-	c #F9A642",
".	c #FEEAD1",
"0	c white",
"1	c #FBBE74",
"2	c #F99D2F",
"3	c #FBBB6E",
"4	c #FEEBD6",
"5	c #FAA845",
"6	c #F9A035",
"7	c #F99D2E",
"8	c #FCD19D",
"9	c #FDD9AD",
":	c #FAA642",
";	c #F99C2D",
"<	c #F9A036",
"=	c #FAA643",
">	c #FDD6A8",
"?	c #FCD4A3",
"@	c #FEEAD2",
"A	c #FAAF55",
"B	c #FCCD94",
"C	c #FEE7CC",
"D	c #F9A33A",
"E	c #FAAC4E",
"F	c #FEEDD8",
"G	c #F9A138",
"H	c #FEECD6",
"I	c #FFFDF9",
"J	c #FFFEFC",
"K	c #FAAA49",
"L	c #FEEEDB",
"M	c #F9A137",
"N	c #FCD6A6",
"O	c #FCD4A4",
"P	c #FCCA8D",
"Q	c #FCCB91",
"R	c #FCD29F",
"S	c #FAA947",
"T	c #FEEBD4",
"U	c #FEF2E3",
"V	c #FEF1E2",
"W	c #FEECD7",
"X	c #F9A53F",
"Y	c #FBC079",
"Z	c #F9A845",
"[	c #FBC078",
"]	c #FBBE75",
"^	c #F9A540",
"_	c #F99F33",
"`	c #F9A23A",
"     ######     ",
"   ##########   ",
"  ############  ",
" ###$%&##&%$### ",
" ##'()*&&+),'## ",
"##$-.01%230456##",
"##7809:;<=>0?7##",
"#&'@0A7BCDE0F$G#",
"#&6H0E$IJ#K0LMG#",
"##7N0OP00QR092##",
"##6ST00UV00WK6##",
" ##'X1YZ,[]^_`# ",
" ###$22<<22$### ",
"  ############  ",
"   ##########   ",
"     ######     "};